<svg width="238" height="79" viewBox="0 0 238 79" fill="none" xmlns="http://www.w3.org/2000/svg">
<path d="M60.134 62.876V77H3.531V65.765L32.421 38.48C35.4883 35.5553 37.557 33.0587 38.627 30.99C39.697 28.85 40.232 26.7457 40.232 24.677C40.232 21.681 39.1977 19.3983 37.129 17.829C35.1317 16.1883 32.1713 15.368 28.248 15.368C24.9667 15.368 22.0063 16.01 19.367 17.294C16.7277 18.5067 14.5163 20.3613 12.733 22.858L0.107 14.726C3.03167 10.3747 7.062 6.98633 12.198 4.561C17.334 2.06433 23.219 0.815999 29.853 0.815999C35.417 0.815999 40.2677 1.74333 44.405 3.59799C48.6137 5.38133 51.8593 7.94933 54.142 11.302C56.496 14.5833 57.673 18.471 57.673 22.965C57.673 27.031 56.817 30.8473 55.105 34.414C53.393 37.9807 50.076 42.0467 45.154 46.612L27.927 62.876H60.134ZM101.317 78.284C95.1113 78.284 89.583 76.7503 84.7323 73.683C79.8816 70.6157 76.0653 66.193 73.2833 60.415C70.5726 54.5657 69.2173 47.6107 69.2173 39.55C69.2173 31.4893 70.5726 24.57 73.2833 18.792C76.0653 12.9427 79.8816 8.48433 84.7323 5.417C89.583 2.34966 95.1113 0.815999 101.317 0.815999C107.523 0.815999 113.052 2.34966 117.902 5.417C122.753 8.48433 126.534 12.9427 129.244 18.792C132.026 24.57 133.417 31.4893 133.417 39.55C133.417 47.6107 132.026 54.5657 129.244 60.415C126.534 66.193 122.753 70.6157 117.902 73.683C113.052 76.7503 107.523 78.284 101.317 78.284ZM101.317 63.625C105.883 63.625 109.449 61.6633 112.017 57.74C114.657 53.8167 115.976 47.7533 115.976 39.55C115.976 31.3467 114.657 25.2833 112.017 21.36C109.449 17.4367 105.883 15.475 101.317 15.475C96.8233 15.475 93.2566 17.4367 90.6173 21.36C88.0493 25.2833 86.7653 31.3467 86.7653 39.55C86.7653 47.7533 88.0493 53.8167 90.6173 57.74C93.2566 61.6633 96.8233 63.625 101.317 63.625ZM199.313 62.876V77H142.71V65.765L171.6 38.48C174.668 35.5553 176.736 33.0587 177.806 30.99C178.876 28.85 179.411 26.7457 179.411 24.677C179.411 21.681 178.377 19.3983 176.308 17.829C174.311 16.1883 171.351 15.368 167.427 15.368C164.146 15.368 161.186 16.01 158.546 17.294C155.907 18.5067 153.696 20.3613 151.912 22.858L139.286 14.726C142.211 10.3747 146.241 6.98633 151.377 4.561C156.513 2.06433 162.398 0.815999 169.032 0.815999C174.596 0.815999 179.447 1.74333 183.584 3.59799C187.793 5.38133 191.039 7.94933 193.321 11.302C195.675 14.5833 196.852 18.471 196.852 22.965C196.852 27.031 195.996 30.8473 194.284 34.414C192.572 37.9807 189.255 42.0467 184.333 46.612L167.106 62.876H199.313ZM237.496 2.09999V77H220.162V16.01H205.182V2.09999H237.496Z" fill="#FFE600"/>
</svg>
